<?xml version="1.0" encoding="UTF-8"?>
<svg id="Layer_2" data-name="Layer 2" xmlns="http://www.w3.org/2000/svg" viewBox="0 0 1790.49 360.01">
  <defs>
    <style>
      .cls-1 {
        fill: #fff;
      }

      .cls-2 {
        fill: none;
      }

      .cls-3 {
        fill: #ed1c24;
      }

      .cls-4 {
        fill: #231f20;
      }
    </style>
  </defs>
  <g id="Layer_1-2" data-name="Layer 1">
    <g>
      <g>
        <rect class="cls-3" x="515.61" y="293.26" width="1159.83" height="66.74"/>
        <path class="cls-4" d="M1256.04,272.77c-15.44-5.54-27.17-12.67-35.19-21.38-8.02-8.71-12.03-19.1-12.03-31.18,0-20.19,6.93-36.23,20.79-48.11-18.81,1.59-39.3,14.95-61.47,40.09v24.05l-61.17-13.36V115.38h-19.6v-27.32h251.53v27.32h-170.76v44.54c28.11-23.36,57.91-35.04,89.39-35.04,6.13,0,11.48,.84,16.04,2.52,4.55,1.68,8.61,4.11,12.18,7.28l41.87,38.6c-10.1,0-18.81,1.29-26.13,3.86-7.33,2.57-13.32,5.89-17.97,9.95-4.65,4.06-8.07,8.61-10.25,13.66-2.18,5.05-3.27,10.15-3.27,15.29,0,15.64,13.46,24.45,40.39,26.43l-54.34,30.29Z"/>
        <path class="cls-4" d="M1552.71,272.77h-61.18v-54.34l-138.98,45.73v-44.84l63.55-21.08v-3.27c0-8.71-5.55-13.07-16.63-13.07h-23.46c-15.64,0-23.46-7.32-23.46-21.97v-50.78c0-14.05,8.41-21.08,25.24-21.08h75.13c14.65,0,27.52,7.72,38.6,23.16v-23.16h80.77v27.32h-19.6v157.39Zm-75.13-92.06l13.96-3.56v-16.33c-8.12-26.13-31.38-39.2-69.79-39.2-5.34,0-8.02,4.95-8.02,14.85v10.99c0,6.34,5.84,9.5,17.52,9.5h25.54c10.89,0,17.82,7.92,20.79,23.76Z"/>
        <path class="cls-3" d="M1521.18,77.73l-48.29-32.83c34.08-7.11,68.15-22.07,102.22-44.9l38.64,20.48c-35.68,30.49-66.54,49.57-92.57,57.24Z"/>
        <path class="cls-4" d="M1031.95,115.38v-27.32H499.6s-18.04,0-18.04,0v-31.41h0V31.14c0-6.14,1.68-9.22,5.05-9.22h121.16c2.77,.33,4.16,2.33,4.16,5.98v18.93h61.18V20.68C673.11,6.89,664,0,645.78,0h-192.74C431.27,0,420.38,7.31,420.38,21.92V56.64h-.06v31.41h-19.18v27.28h19.18v244.68h61.24V115.33h13.67v.04h19.6v107.5l61.17,13.36v-24.05c22.17-25.14,42.66-38.5,61.47-40.09-13.86,11.88-20.79,27.91-20.79,48.11,0,12.08,4.01,22.47,12.03,31.18,8.02,8.71,19.75,15.84,35.19,21.38l54.34-30.29c-26.93-1.98-40.39-10.79-40.39-26.43,0-5.15,1.08-10.24,3.27-15.29,2.18-5.05,5.59-9.6,10.24-13.66,4.65-4.05,10.64-7.37,17.97-9.95,7.32-2.57,16.04-3.86,26.13-3.86l-41.87-38.6c-3.56-3.17-7.62-5.59-12.18-7.28-4.56-1.68-9.9-2.52-16.04-2.52-31.48,0-61.28,11.68-89.39,35.04v-44.54h282.22v3.56c-19,14.45-51.28,27.52-96.81,39.2v83.45c0,17.82,10.99,28.21,32.96,31.18h125.02v-120.86h3.27c19.01,0,28.51,7.03,28.51,21.08s-5.64,21.08-16.93,21.08h-1.78v32.96h38.6c27.52,0,41.28-8.51,41.28-25.54v-50.48c0-16.63-30.99-27.32-92.95-32.07v-3.56h112.55Zm-173.72,121.46c0,6.93-5.64,10.5-16.93,10.69-12.47,0-18.71-4.45-18.71-13.36v-65.33c9.7-2.97,21.58-8.31,35.64-16.04v84.04Z"/>
        <path class="cls-4" d="M1790.49,88.06h-19.75v-31.41h-62.76v44.9c-6.38-8.98-12.55-13.49-18.53-13.49h-82.17c-14.2,0-21.3,9.31-21.3,27.91v83.45c.2,16.83,8.83,25.24,25.87,25.24h64.82v-37.71h-18.26c-6.5,0-9.74-2.47-9.74-7.42v-36.53c0-10.69,9.84-16.04,29.52-16.04,9.94,0,17.35,1.83,22.22,5.49,4.87,3.67,7.3,8.86,7.3,15.59v124.72h.27v87.24h62.76V115.38h19.75v-27.32Z"/>
        <g>
          <path class="cls-1" d="M786.95,319.49v28.72c-.26,0-.77-.17-1.5-.52-.74-.35-1.48-.75-2.22-1.19-.9-.51-1.87-1.09-2.93-1.76v-13.14c0-.22-.2-.49-.59-.81s-.9-.61-1.5-.88c-.61-.27-1.23-.5-1.86-.69-.63-.19-1.19-.29-1.66-.29-1.16,0-2.35,.4-3.56,1.19-.26,.22-.55,.44-.87,.67-.32,.22-.61,.46-.87,.71-.26,.25-.55,.52-.87,.81-.32,.29-.61,.57-.87,.86-.63,.6-1.28,1.19-1.94,1.76-.66,.57-1.37,1.09-2.14,1.55-.77,.46-1.56,.83-2.37,1.1-.82,.27-1.7,.4-2.65,.4-1.74,0-3.21-.21-4.39-.62-1.19-.41-2.2-.94-3.05-1.57-.42-.32-.82-.65-1.19-1-.37-.35-.71-.7-1.03-1.05-.32-.35-.65-.73-.99-1.14-.34-.41-.78-.91-1.31-1.48l5.07-2.95c.1,.57,.3,1.13,.59,1.67,.29,.54,.62,1.02,.99,1.43,.37,.41,.74,.74,1.11,.98,.37,.24,.71,.36,1.03,.36,.53,0,1.16-.25,1.9-.74,.74-.49,1.48-1.02,2.22-1.6,.74-.57,1.41-1.12,2.02-1.64,.61-.52,1.07-.91,1.38-1.17-.21-1.14-.51-2.05-.91-2.71s-.87-1.18-1.43-1.55c-.55-.36-1.17-.61-1.86-.74-.69-.13-1.37-.22-2.06-.29-.42-.03-.87-.06-1.35-.07-.48-.02-.92-.04-1.35-.07h-.32l-.08-.05h-.63l-.08-.05h-.32c-.47-.03-.98-.1-1.5-.19-.95-.16-1.87-.41-2.77-.74-.9-.33-1.71-.83-2.45-1.5-.42-.13-.88-.31-1.38-.55-.5-.24-1.01-.5-1.54-.79l-.71-.43-3.72-2.24h53.34l6.65,4h-11.47Zm-6.65,0h-17.01c1.32,.67,2.39,1.4,3.21,2.21,.82,.81,1.25,1.72,1.31,2.74,.74-.32,1.48-.58,2.22-.79,.74-.21,1.48-.31,2.22-.31,1.11,0,2.16,.22,3.17,.67,1,.44,1.9,.92,2.69,1.43,.84,.57,1.58,1.11,2.22,1.62v-7.57Z"/>
          <path class="cls-1" d="M808.31,343.87c-.42-.38-.79-.8-1.11-1.26-.32-.46-.47-.9-.47-1.31,0-.51,.2-.99,.59-1.45s.91-.86,1.54-1.19c.63-.33,1.35-.59,2.14-.79s1.58-.29,2.37-.29c.95,0,1.82,.14,2.61,.41s1.48,.61,2.06,1.02c.58,.41,1.04,.87,1.38,1.38,.34,.51,.51,1.02,.51,1.52,0,.76-.27,1.47-.79,2.12-.53,.65-1.21,1.2-2.06,1.64-.85,.45-1.83,.79-2.97,1.05-1.14,.25-2.28,.38-3.44,.38-2,0-3.81-.22-5.42-.67-1.61-.44-3.03-1.04-4.27-1.79-1.24-.75-2.32-1.6-3.24-2.57-.92-.97-1.68-1.98-2.26-3.02-.58-1.05-1.02-2.1-1.31-3.17-.29-1.06-.43-2.06-.43-2.98,0-2.54,.8-4.93,2.41-7.17s3.68-4.33,6.21-6.26h-12.35l-6.65-4h35.53c.95,.64,1.79,1.22,2.53,1.76,.63,.45,1.23,.89,1.78,1.33,.55,.45,.83,.75,.83,.91-1.69,0-3.18,.09-4.47,.29-1.29,.19-2.55,.41-3.76,.67-2.85,.7-5.24,1.55-7.16,2.55-1.93,1-3.47,2.15-4.63,3.45-1.16,1.3-1.98,2.75-2.45,4.33-.48,1.59-.71,3.29-.71,5.1,0,.7,.17,1.48,.51,2.36,.34,.87,.84,1.7,1.5,2.48,.66,.78,1.45,1.46,2.37,2.05,.92,.59,1.94,.96,3.05,1.12Z"/>
          <path class="cls-1" d="M819.16,319.49l-6.65-4h60.77l7.04,4h-61.17Zm33,25.1c-3.01,0-5.78-.41-8.31-1.24-2.53-.83-4.84-1.91-6.92-3.26-2.08-1.35-3.98-2.9-5.7-4.64-1.71-1.75-3.24-3.55-4.59-5.41s-2.52-3.7-3.52-5.52c-1-1.83-1.87-3.5-2.61-5.02l4.99,1.24c.84,1.24,1.77,2.54,2.77,3.91,1,1.37,2.1,2.71,3.28,4.05,1.19,1.33,2.51,2.6,3.96,3.81,1.45,1.21,3.03,2.28,4.75,3.21,1.71,.94,3.59,1.67,5.62,2.21,2.03,.54,4.23,.81,6.61,.81,1.32,0,2.68-.18,4.08-.55,1.4-.37,2.68-.84,3.84-1.43,1.16-.59,2.12-1.27,2.89-2.05,.76-.78,1.23-1.6,1.38-2.45v-.43c0-.63-.22-1.32-.67-2.05-.45-.73-1.11-1.4-1.98-2-.87-.6-1.86-1.09-2.97-1.48-1.11-.38-2.19-.57-3.24-.57-.27,0-.5,0-.71,.02-.21,.02-.45,.04-.71,.07,.42,.44,.71,.9,.87,1.36s.24,.93,.24,1.4c0,1.62-.77,2.79-2.29,3.52-1.53,.73-3.51,1.1-5.94,1.1-1.48,0-2.77-.16-3.88-.48s-2.05-.75-2.81-1.29c-.77-.54-1.33-1.17-1.7-1.88-.37-.71-.55-1.48-.55-2.31,0-.98,.36-1.87,1.07-2.67,.71-.79,1.63-1.48,2.77-2.05,1.13-.57,2.41-1.01,3.84-1.31,1.43-.3,2.87-.45,4.35-.45,2.74,0,5.41,.33,7.99,.98,2.58,.65,4.83,1.57,6.73,2.76s3.31,2.53,4.23,4.02c.92,1.49,1.38,3.02,1.38,4.57,0,.38-.03,.78-.08,1.19-.21,1.49-.83,2.87-1.86,4.12-1.03,1.25-2.37,2.34-4.04,3.26-1.66,.92-3.56,1.64-5.7,2.14-2.14,.51-4.42,.76-6.84,.76Z"/>
          <path class="cls-1" d="M893.7,319.49c-2.74,0-4.71,.44-5.89,1.31-1.19,.87-1.78,2.12-1.78,3.74,0,1.21,.16,2.4,.48,3.57,.32,1.17,.68,2.37,1.11,3.57,.42,1.21,.79,2.42,1.11,3.64,.32,1.22,.48,2.45,.48,3.69,0,1.11-.45,2.24-1.35,3.38-.9,1.14-2.05,2.17-3.44,3.09-1.4,.92-2.96,1.68-4.67,2.26-1.71,.59-3.42,.88-5.1,.88-.74,0-1.46-.17-2.18-.5-.71-.33-1.07-.77-1.07-1.31,0-.25,.25-.5,.75-.74,.5-.24,1.12-.44,1.86-.6,.26-.06,.51-.1,.75-.12,.24-.02,.49-.05,.75-.12,.48-.1,.74-.16,.79-.19,.9-.41,1.66-.8,2.29-1.17,.63-.37,1.15-.75,1.54-1.17,.4-.41,.67-.87,.83-1.38s.24-1.13,.24-1.86c0-.44-.05-.89-.16-1.33-.11-.44-.24-.89-.4-1.33-.16-.44-.33-.9-.51-1.36-.19-.46-.38-.93-.59-1.41-.47-.92-.9-1.86-1.27-2.83-.37-.97-.55-1.94-.55-2.93,0-1.11,.2-2.09,.59-2.93,.4-.84,.94-1.64,1.62-2.41,.32-.38,.66-.75,1.03-1.1,.37-.35,.76-.71,1.19-1.09,.26-.22,.53-.44,.79-.64,.26-.21,.53-.42,.79-.64h-11.47l-6.8-4h30.55c.95,.6,1.82,1.18,2.61,1.71,.63,.45,1.23,.89,1.78,1.33s.83,.76,.83,.95h-7.52Z"/>
          <path class="cls-1" d="M929.79,319.49v28.81c-1-.35-1.66-.58-1.98-.69-.32-.11-.58-.23-.79-.36-.26-.13-.74-.46-1.42-1-.48-.48-.95-.99-1.43-1.55-.47-.56-1-1.13-1.58-1.74-.58-.6-1.2-1.21-1.86-1.83s-1.41-1.21-2.26-1.79c-1.69-1.14-3.81-2.15-6.37-3.02s-5.92-1.39-10.09-1.55l-6.88-5.71c4.59-1.94,9.16-3.65,13.73-5.14,4.56-1.49,9.32-2.7,14.28-3.62v-.81h-27.86l-6.8-4h46.06l6.73,4h-11.47Zm-18.68,26.15c-.79,0-1.56-.1-2.29-.29-.74-.19-1.38-.45-1.94-.79-.55-.33-1-.72-1.35-1.17-.34-.44-.51-.91-.51-1.38,0-.92,.54-1.71,1.62-2.36,1.08-.65,2.36-.98,3.84-.98,1.58,0,2.98,.35,4.19,1.05,1.21,.7,1.82,1.52,1.82,2.48,0,.86-.51,1.64-1.54,2.36-1.03,.71-2.31,1.07-3.84,1.07Zm12.03-19.91c-2.8,.64-5.41,1.33-7.83,2.1-2.43,.76-4.85,1.65-7.28,2.67,3.11,.86,5.95,1.92,8.51,3.19,2.56,1.27,4.76,2.76,6.61,4.48v-12.43Z"/>
          <path class="cls-1" d="M1000.05,319.49v28.72c-.26,0-.77-.17-1.5-.52-.74-.35-1.48-.75-2.22-1.19-.9-.51-1.87-1.09-2.93-1.76v-13.14c0-.22-.2-.49-.59-.81s-.9-.61-1.5-.88c-.61-.27-1.23-.5-1.86-.69-.63-.19-1.19-.29-1.66-.29-1.16,0-2.35,.4-3.56,1.19-.26,.22-.55,.44-.87,.67-.32,.22-.61,.46-.87,.71-.26,.25-.55,.52-.87,.81-.32,.29-.61,.57-.87,.86-.63,.6-1.28,1.19-1.94,1.76-.66,.57-1.37,1.09-2.14,1.55-.77,.46-1.56,.83-2.37,1.1-.82,.27-1.7,.4-2.65,.4-1.74,0-3.21-.21-4.39-.62-1.19-.41-2.2-.94-3.05-1.57-.42-.32-.82-.65-1.19-1-.37-.35-.71-.7-1.03-1.05-.32-.35-.65-.73-.99-1.14-.34-.41-.78-.91-1.31-1.48l5.07-2.95c.1,.57,.3,1.13,.59,1.67,.29,.54,.62,1.02,.99,1.43,.37,.41,.74,.74,1.11,.98,.37,.24,.71,.36,1.03,.36,.53,0,1.16-.25,1.9-.74,.74-.49,1.48-1.02,2.22-1.6,.74-.57,1.41-1.12,2.02-1.64,.61-.52,1.07-.91,1.38-1.17-.21-1.14-.51-2.05-.91-2.71s-.87-1.18-1.43-1.55c-.55-.36-1.17-.61-1.86-.74-.69-.13-1.37-.22-2.06-.29-.42-.03-.87-.06-1.35-.07-.48-.02-.92-.04-1.35-.07h-.32l-.08-.05h-.63l-.08-.05h-.32c-.47-.03-.98-.1-1.5-.19-.95-.16-1.87-.41-2.77-.74-.9-.33-1.71-.83-2.45-1.5-.42-.13-.88-.31-1.38-.55-.5-.24-1.01-.5-1.54-.79l-.71-.43-3.72-2.24h53.34l6.65,4h-11.47Zm-6.65,0h-17.01c1.32,.67,2.39,1.4,3.21,2.21,.82,.81,1.25,1.72,1.31,2.74,.74-.32,1.48-.58,2.22-.79,.74-.21,1.48-.31,2.22-.31,1.11,0,2.16,.22,3.17,.67,1,.44,1.9,.92,2.69,1.43,.84,.57,1.58,1.11,2.22,1.62v-7.57Z"/>
          <path class="cls-1" d="M1036.54,319.49v6.24c.42-.13,.82-.24,1.19-.33,.37-.1,.76-.19,1.19-.29,.63-.16,1.31-.28,2.02-.36,.71-.08,1.49-.12,2.33-.12,.63,0,1.33,.06,2.1,.19,.76,.13,1.49,.31,2.18,.55,.69,.24,1.23,.53,1.62,.88s.59,.73,.59,1.14v.14c-.27,1.71-.46,3.38-.59,5-.13,1.62-.2,3.29-.2,5,0,1.59,.1,3.22,.32,4.91,.21,1.68,.79,3.64,1.74,5.86-.9-.32-1.86-.71-2.89-1.17-1.03-.46-1.98-.93-2.85-1.41-.87-.48-1.58-.93-2.14-1.36s-.83-.8-.83-1.12v-13.38c-.9,.09-1.87,.29-2.93,.57-1.06,.29-2.01,.56-2.85,.81v18.05c-.27,0-.66-.08-1.19-.24-.53-.16-1.03-.33-1.5-.52-.58-.22-1.19-.48-1.82-.76-.26-1.27-.83-2.47-1.7-3.6-.87-1.13-2-2.09-3.4-2.9-1.4-.81-3-1.44-4.79-1.88-1.79-.44-3.72-.67-5.78-.67h-.4l-5.38-4.33c3.11-1.27,6.12-2.41,9.02-3.43,2.9-1.02,5.75-2.03,8.55-3.05-.69-.83-1.79-1.54-3.32-2.14-1.53-.6-3.03-.91-4.51-.91-.21,0-.5-.02-.87-.07-.37-.05-.61-.07-.71-.07-.27,0-.4,.05-.4,.14,0,.06,.03,.11,.08,.14,.05,.13,.21,.29,.48,.48,.21,.25,.4,.49,.55,.71,.16,.22,.24,.45,.24,.67,0,.51-.19,.97-.55,1.38-.37,.41-.86,.77-1.46,1.07-.61,.3-1.28,.53-2.02,.69-.74,.16-1.48,.24-2.22,.24-.79,0-1.58-.09-2.37-.26-.79-.17-1.52-.42-2.18-.74s-1.2-.7-1.62-1.14c-.42-.44-.63-.95-.63-1.52,0-.89,.22-1.72,.67-2.5,.45-.78,1.09-1.46,1.94-2.05,.84-.59,1.89-1.05,3.13-1.38,1.24-.33,2.65-.5,4.23-.5s3.1,.13,4.39,.38c1.29,.25,2.46,.59,3.52,1.02,1.05,.43,2.02,.92,2.89,1.48,.87,.56,1.7,1.15,2.49,1.79v-5.33h-25.8l-7.04-4h57.45l6.65,4h-24.61Zm-6.65,13.48c-1.27,.41-2.51,.85-3.72,1.31-1.21,.46-2.43,.91-3.64,1.36,2.74,.98,5.2,2.21,7.36,3.67v-6.33Z"/>
          <path class="cls-1" d="M1066.92,319.49v29.43c-.32,0-.84-.17-1.58-.5-.74-.33-1.48-.71-2.22-1.12-.9-.48-1.85-1.02-2.85-1.62v-21.29c0-1.65-.42-2.88-1.27-3.69-.85-.81-2.16-1.21-3.96-1.21-.42,0-.84,.02-1.27,.05l-5.62-4.14c.95,.03,1.7,.06,2.26,.07,.55,.02,1.02,.02,1.38,.02h1.66c1.95,0,3.53,.21,4.75,.64s2.27,1.09,3.17,1.98c-.11-.35-.21-.73-.32-1.14-.11-.41-.21-.9-.32-1.48-.11-.57-.24-1.24-.4-2-.16-.76-.32-1.65-.48-2.67l4.04,1.91c.11,.54,.21,.91,.32,1.12,.1,.21,.24,.39,.4,.55,.16,.19,.37,.37,.63,.52l.95,.57h6.96l6.65,4h-12.9Z"/>
          <path class="cls-1" d="M1089.79,343.87c-.42-.38-.79-.8-1.11-1.26-.32-.46-.47-.9-.47-1.31,0-.51,.2-.99,.59-1.45s.91-.86,1.54-1.19c.63-.33,1.35-.59,2.14-.79s1.58-.29,2.37-.29c.95,0,1.82,.14,2.61,.41s1.48,.61,2.06,1.02c.58,.41,1.04,.87,1.38,1.38,.34,.51,.51,1.02,.51,1.52,0,.76-.27,1.47-.79,2.12-.53,.65-1.21,1.2-2.06,1.64-.85,.45-1.83,.79-2.97,1.05-1.14,.25-2.28,.38-3.44,.38-2,0-3.81-.22-5.42-.67-1.61-.44-3.03-1.04-4.27-1.79-1.24-.75-2.32-1.6-3.24-2.57-.92-.97-1.68-1.98-2.26-3.02-.58-1.05-1.02-2.1-1.31-3.17-.29-1.06-.43-2.06-.43-2.98,0-2.54,.8-4.93,2.41-7.17s3.68-4.33,6.21-6.26h-12.35l-6.65-4h35.53c.95,.64,1.79,1.22,2.53,1.76,.63,.45,1.23,.89,1.78,1.33,.55,.45,.83,.75,.83,.91-1.69,0-3.18,.09-4.47,.29-1.29,.19-2.55,.41-3.76,.67-2.85,.7-5.24,1.55-7.16,2.55-1.93,1-3.47,2.15-4.63,3.45-1.16,1.3-1.98,2.75-2.45,4.33-.48,1.59-.71,3.29-.71,5.1,0,.7,.17,1.48,.51,2.36,.34,.87,.84,1.7,1.5,2.48,.66,.78,1.45,1.46,2.37,2.05,.92,.59,1.94,.96,3.05,1.12Z"/>
          <path class="cls-1" d="M1118.52,329.21c.05,.06,.09,.1,.12,.12,.03,.02,.07,.06,.12,.12,.21,.16,.41,.33,.59,.52,.18,.19,.33,.37,.43,.52,.69,.76,1.03,1.6,1.03,2.52,0,1.37-.74,2.38-2.22,3.05-1.48,.67-3.19,1-5.14,1-3.16,0-5.61-.52-7.32-1.55-1.71-1.03-2.57-2.5-2.57-4.41,0-1.05,.33-1.99,.99-2.83,.66-.84,1.56-1.56,2.69-2.17,1.13-.6,2.44-1.07,3.92-1.4,1.48-.33,3.03-.5,4.67-.5,1.9,0,3.64,.21,5.22,.62,1.58,.41,3.02,.96,4.31,1.64,1.29,.68,2.46,1.45,3.52,2.31,1.05,.86,2,1.73,2.85,2.62v-11.91h-31.1l-6.65-4h49.22l6.88,4h-11.71v30.43l-3.8-3c.1-.25,.16-.44,.16-.57v-.38c0-.89-.17-1.91-.51-3.05-.34-1.14-.86-2.33-1.54-3.55-.69-1.22-1.5-2.43-2.45-3.62-.95-1.19-2.02-2.26-3.21-3.21s-2.51-1.73-3.96-2.33c-1.45-.6-2.97-.94-4.55-1Z"/>
          <path class="cls-1" d="M1211.34,319.49v28.91c-1.27-.51-2.2-.9-2.81-1.19s-1.12-.55-1.54-.81c-.42-.25-.84-.52-1.27-.81-.42-.29-.92-.6-1.5-.95,.1-2.67,.21-5.06,.32-7.19,.05-.89,.09-1.77,.12-2.64,.03-.87,.04-1.66,.04-2.36v-2.33c0-.29-.13-.65-.4-1.1-.26-.44-.59-.9-.99-1.36-.4-.46-.83-.9-1.31-1.31s-.92-.75-1.35-1l-15.59,9.52-8.78-2,1.98-1.19,.08-.05,.16-.09,.32-.19c.26-.16,.53-.31,.79-.45,.26-.14,.53-.29,.79-.45,.42-.35,.78-.67,1.07-.95,.29-.29,.43-.59,.43-.91,0-.22-.03-.47-.08-.74-.05-.27-.15-.52-.28-.74-.13-.22-.34-.41-.63-.57-.29-.16-.67-.24-1.15-.24-.42,0-.86,.05-1.31,.14-.45,.09-.91,.21-1.38,.33-.26,.06-.54,.13-.83,.19-.29,.06-.57,.13-.83,.19-.63,.16-1.21,.24-1.74,.24-.58,0-1.15-.09-1.7-.26-.55-.17-1.04-.41-1.46-.69-.42-.29-.77-.6-1.03-.95-.26-.35-.4-.68-.4-1,0-1.21,.71-2.33,2.14-3.38,1.42-1.05,3.15-1.95,5.18-2.71,2.03-.76,4.15-1.36,6.37-1.79,2.22-.43,4.09-.64,5.62-.64,1.74,0,3.43,.17,5.07,.5,1.63,.33,3.15,.79,4.55,1.38,1.4,.59,2.69,1.28,3.88,2.07,1.19,.79,2.23,1.64,3.13,2.52-.11-.86-.19-1.72-.24-2.59-.05-.87-.09-1.78-.12-2.71-.03-.94-.04-1.93-.04-2.98v-3.43l4.27,1.86,.48,.52c.1,.73,.29,1.23,.55,1.5,.26,.27,.84,.56,1.74,.88h4.83l6.49,4h-11.63Zm-30.55,3.14c1.53,.16,2.85,.64,3.96,1.43,1.11,.79,1.79,1.65,2.06,2.57l8.47-5.05c-1.58-.95-3.46-1.43-5.62-1.43-3.91,0-6.86,.83-8.86,2.48Z"/>
          <path class="cls-1" d="M1208.18,348.49c-.26-.29-.53-.56-.79-.81-.26-.25-.45-.46-.55-.62-.95-.98-1.77-1.8-2.45-2.45-.69-.65-1.46-1.17-2.33-1.55-.87-.38-1.91-.64-3.13-.79-1.21-.14-2.82-.21-4.83-.21s-4,.04-5.97,.12c-1.98,.08-3.94,.12-5.9,.12-2.16,0-4.21-.21-6.13-.64-1.93-.43-3.63-1.04-5.1-1.83-1.48-.79-2.65-1.75-3.52-2.86-.87-1.11-1.31-2.35-1.31-3.71,0-.76,.04-1.59,.12-2.48,.08-.89,.33-2,.75-3.33l4.43,2.67c-.26,.35-.43,.62-.51,.81-.08,.19-.12,.37-.12,.52,0,1.05,.32,1.89,.95,2.52,.63,.64,1.54,1.14,2.73,1.5,1.19,.37,2.58,.63,4.19,.79s3.42,.29,5.42,.38c2.01,.06,4.02,.15,6.05,.26s4.02,.31,5.97,.6c1.95,.29,3.81,.71,5.58,1.29,1.77,.57,3.28,1.37,4.55,2.38,.74,.54,1.36,1.02,1.86,1.45s.96,.85,1.38,1.26c.42,.41,.8,.82,1.15,1.21,.34,.4,.67,.87,.99,1.4v4.24c-1.06-.48-1.81-.88-2.26-1.21-.45-.33-.86-.67-1.23-1.02Z"/>
          <path class="cls-1" d="M1224.48,313.54c0,.06,.08,.18,.24,.36,.16,.17,.32,.39,.48,.64,.16,.16,.29,.33,.4,.5,.1,.17,.21,.33,.32,.45h8.47l6.65,4h-13.14v29.19c-.53-.32-1.06-.62-1.58-.91-.42-.25-.87-.51-1.35-.76-.47-.25-.84-.46-1.11-.62-.32-.16-.61-.33-.87-.5-.26-.17-.53-.33-.79-.45l-.08-.05-.08-.05-.08-.05v-.05c-.11-.03-.19-.08-.24-.14-.21-.13-.34-.22-.4-.29-.11-.13-.16-.25-.16-.38,0-.06,.03-.13,.08-.19v-24.76h-6.25l-6.65-4h11.95c-.79-.44-1.54-.94-2.26-1.48s-1.07-1.16-1.07-1.86c0-1.27,.63-2.49,1.9-3.67,1.27-1.17,2.83-2.2,4.71-3.07,1.87-.87,3.9-1.57,6.09-2.09,2.19-.52,4.21-.79,6.05-.79,2.8,0,5.5,.22,8.11,.67s5.1,1.05,7.48,1.81,4.63,1.66,6.77,2.69c2.14,1.03,4.15,2.12,6.05,3.26l2.22,3.91c-4.12-2.03-7.87-3.62-11.28-4.76-3.4-1.14-6.36-1.93-8.86-2.36-2.51-.43-4.71-.64-6.61-.64-.37,0-1.16,.02-2.37,.07s-2.61,.28-4.19,.69c-1.58,.41-2.92,.93-4,1.55-1.08,.62-1.97,1.22-2.65,1.81-.69,.59-1.17,1.1-1.46,1.55s-.43,.7-.43,.76Z"/>
          <path class="cls-1" d="M1233.1,319.49l-6.65-4h60.77l7.04,4h-61.17Zm33,25.1c-3.01,0-5.78-.41-8.31-1.24-2.53-.83-4.84-1.91-6.92-3.26-2.08-1.35-3.98-2.9-5.7-4.64-1.71-1.75-3.24-3.55-4.59-5.41s-2.52-3.7-3.52-5.52c-1-1.83-1.87-3.5-2.61-5.02l4.99,1.24c.84,1.24,1.77,2.54,2.77,3.91,1,1.37,2.1,2.71,3.28,4.05,1.19,1.33,2.51,2.6,3.96,3.81,1.45,1.21,3.03,2.28,4.75,3.21,1.71,.94,3.59,1.67,5.62,2.21,2.03,.54,4.23,.81,6.61,.81,1.32,0,2.68-.18,4.08-.55,1.4-.37,2.68-.84,3.84-1.43,1.16-.59,2.12-1.27,2.89-2.05,.76-.78,1.23-1.6,1.38-2.45v-.43c0-.63-.22-1.32-.67-2.05-.45-.73-1.11-1.4-1.98-2-.87-.6-1.86-1.09-2.97-1.48-1.11-.38-2.19-.57-3.24-.57-.27,0-.5,0-.71,.02-.21,.02-.45,.04-.71,.07,.42,.44,.71,.9,.87,1.36s.24,.93,.24,1.4c0,1.62-.77,2.79-2.29,3.52-1.53,.73-3.51,1.1-5.94,1.1-1.48,0-2.77-.16-3.88-.48s-2.05-.75-2.81-1.29c-.77-.54-1.33-1.17-1.7-1.88-.37-.71-.55-1.48-.55-2.31,0-.98,.36-1.87,1.07-2.67,.71-.79,1.63-1.48,2.77-2.05,1.13-.57,2.41-1.01,3.84-1.31,1.43-.3,2.87-.45,4.35-.45,2.74,0,5.41,.33,7.99,.98,2.58,.65,4.83,1.57,6.73,2.76s3.31,2.53,4.23,4.02c.92,1.49,1.38,3.02,1.38,4.57,0,.38-.03,.78-.08,1.19-.21,1.49-.83,2.87-1.86,4.12-1.03,1.25-2.37,2.34-4.04,3.26-1.66,.92-3.56,1.64-5.7,2.14-2.14,.51-4.42,.76-6.84,.76Z"/>
          <path class="cls-1" d="M1329.57,319.49v3.19c.68-.06,1.37-.09,2.06-.09,1.37,0,2.89,.13,4.55,.4,1.66,.27,3.29,.76,4.87,1.48,1.58,.71,2.86,1.6,3.84,2.67,.98,1.06,1.46,2.23,1.46,3.5,0,.57-.13,1.17-.4,1.79s-.67,1.18-1.23,1.69c-.55,.51-1.29,.93-2.22,1.26-.92,.33-2.02,.5-3.28,.5-2.85,0-4.91-.33-6.17-.98-1.27-.65-1.93-1.44-1.98-2.36v-.24c0-.32,.09-.65,.28-1,.18-.35,.46-.69,.83-1.02,.37-.33,.8-.61,1.3-.83,.5-.22,1.07-.33,1.7-.33,.79,0,1.7,.04,2.73,.12,1.03,.08,1.94,.31,2.73,.69v-.1c0-.92-.73-1.59-2.18-2-1.45-.41-3.36-.62-5.74-.62-1.21,0-2.27,.06-3.16,.19v21.57c-.58-.44-1.1-.85-1.54-1.21-.45-.37-.86-.69-1.23-.98-.42-.35-.79-.65-1.11-.91-.21-.35-.4-.7-.55-1.05l-.08-.05v-.1l-.08-.05c-.05-.1-.11-.19-.16-.29v-.14c-.32-.51-.63-1.02-.95-1.52-.9-1.36-1.93-2.6-3.09-3.71-1.16-1.11-2.88-2.03-5.14-2.76-.63,.83-1.54,1.45-2.73,1.86-1.19,.41-2.55,.62-4.08,.62-2.22,0-3.93-.37-5.14-1.12-1.21-.75-1.82-1.77-1.82-3.07,0-.7,.24-1.32,.71-1.86,.47-.54,1.09-.99,1.86-1.36,.76-.37,1.58-.63,2.45-.79,.87-.16,1.73-.24,2.57-.24h.47c.16-.29,.24-.57,.24-.86,0-.32-.13-.69-.4-1.12-.27-.43-.74-.84-1.43-1.24-.69-.4-1.33-.63-1.94-.71-.61-.08-1.07-.12-1.38-.12-.53,0-1.06,.06-1.58,.19-.11,.51-.36,.99-.75,1.45-.4,.46-.9,.87-1.5,1.21-.61,.35-1.31,.63-2.1,.83-.79,.21-1.61,.31-2.45,.31-1.06,0-1.98-.13-2.77-.4-.79-.27-1.45-.61-1.98-1.02-.53-.41-.94-.88-1.23-1.4-.29-.52-.44-1.06-.44-1.6v-.14c0-.95,.44-1.87,1.31-2.74,.87-.87,2.31-1.37,4.31-1.5-.05-.83-1.08-1.38-3.09-1.67-.53-.06-1.07-.11-1.62-.14-.55-.03-1.12-.06-1.7-.09h-3.24l-6.25-4h68.93l6.8,4h-26.11Zm-6.65,8.19c-1.69-.16-3.31-.48-4.87-.95-1.56-.48-2.96-1.07-4.19-1.79-1.24-.71-2.29-1.54-3.17-2.48-.87-.94-1.44-1.93-1.7-2.98h-8.94c.26,.32,.49,.64,.67,.95,.18,.32,.41,.64,.67,.95,0-.03,.03-.05,.08-.05h.16c.58,.13,1.19,.27,1.82,.43,.74,.22,1.6,.48,2.57,.76,.98,.29,1.96,.65,2.97,1.1,2,.83,3.86,1.93,5.58,3.31,1.71,1.38,2.7,3.12,2.97,5.21,2.11,.79,3.9,1.86,5.38,3.19v-7.67Zm0-8.19h-7.6c-.16,0-.24,.03-.24,.09s.04,.15,.12,.26c.08,.11,.12,.2,.12,.26,0,.76,.26,1.34,.79,1.74,.53,.4,1.21,.72,2.06,.98,.79,.22,1.77,.41,2.93,.57,.21,.03,.42,.05,.63,.05,.1,.03,.21,.05,.32,.05,.32,.03,.61,.06,.87,.1v-4.1Z"/>
          <path class="cls-1" d="M1383.62,319.49v27.86l-1.03-.62c.16,.16,.24,.29,.24,.38s-.11,.18-.32,.26c-.21,.08-.48,.12-.79,.12-.16-.1-.32-.17-.48-.24-.21-.16-.46-.33-.75-.5s-.57-.37-.83-.6l-1.9-1.14c-.32-.19-.61-.38-.87-.57l.08-15.76c0-.95-.29-1.91-.87-2.88-.58-.97-1.38-1.83-2.41-2.59-1.03-.76-2.24-1.39-3.64-1.88-1.4-.49-2.89-.74-4.47-.74-1,0-1.97,.14-2.89,.41-.92,.27-1.74,.63-2.45,1.07-.71,.45-1.28,.95-1.7,1.52s-.63,1.16-.63,1.76c0,.29,.04,.63,.12,1.02,.08,.4,.21,.79,.4,1.19,.18,.4,.45,.77,.79,1.12,.34,.35,.75,.59,1.23,.71,0-.19-.01-.37-.04-.55-.03-.17-.04-.36-.04-.55,0-1.05,.55-1.77,1.66-2.17,1.11-.4,2.35-.6,3.72-.6,.95,0,1.82,.11,2.61,.33s1.48,.52,2.06,.9c.58,.38,1.04,.82,1.38,1.31,.34,.49,.51,1.01,.51,1.55,0,.73-.29,1.37-.87,1.93-.58,.56-1.33,1.02-2.26,1.38-.92,.37-1.91,.64-2.97,.83-1.06,.19-2.06,.29-3.01,.29-2.06,0-3.92-.24-5.58-.71-1.66-.48-3.09-1.11-4.27-1.91-1.19-.79-2.11-1.71-2.77-2.76-.66-1.05-.99-2.14-.99-3.29,0-1.4,.36-2.7,1.07-3.91,.71-1.21,1.73-2.26,3.05-3.17,1.32-.9,2.94-1.62,4.87-2.14,1.93-.52,4.13-.79,6.61-.79,1.58,0,3.03,.17,4.35,.52,1.32,.35,2.52,.81,3.6,1.38,1.08,.57,2.06,1.22,2.93,1.95,.87,.73,1.62,1.49,2.26,2.29l-.32-2.48c-.11-.6-.19-1.32-.24-2.14-.05-.83-.12-1.67-.2-2.52-.08-.86-.15-1.7-.2-2.52-.05-.83-.08-1.55-.08-2.19,.69,.45,1.25,.82,1.7,1.12s.82,.55,1.11,.74,.51,.35,.67,.48c.05,.06,.1,.11,.16,.14,0,.03,.03,.06,.08,.09,.05,.06,.1,.11,.16,.14,.26,.22,.47,.43,.63,.62s.32,.37,.48,.52c.26,.29,.61,.57,1.03,.86,.42,.29,1.13,.65,2.14,1.09h3.48l6.57,4h-11.87Z"/>
          <path class="cls-1" d="M1401.9,348.16c-2.01,0-3.57-.35-4.71-1.05-1.14-.7-1.7-1.63-1.7-2.81,0-1.08,.63-1.97,1.9-2.67,1.27-.7,2.77-1.05,4.51-1.05,2,0,3.57,.35,4.71,1.05,1.13,.7,1.7,1.65,1.7,2.86,0,1.11-.65,2-1.94,2.67-1.29,.67-2.78,1-4.47,1Z"/>
          <path class="cls-1" d="M1424.05,348.16c-2.01,0-3.57-.35-4.71-1.05-1.14-.7-1.7-1.63-1.7-2.81,0-1.08,.63-1.97,1.9-2.67,1.27-.7,2.77-1.05,4.51-1.05,2,0,3.57,.35,4.71,1.05,1.13,.7,1.7,1.65,1.7,2.86,0,1.11-.65,2-1.94,2.67-1.29,.67-2.78,1-4.47,1Z"/>
          <path class="cls-1" d="M1446.21,348.16c-2.01,0-3.57-.35-4.71-1.05-1.14-.7-1.7-1.63-1.7-2.81,0-1.08,.63-1.97,1.9-2.67,1.27-.7,2.77-1.05,4.51-1.05,2,0,3.57,.35,4.71,1.05,1.13,.7,1.7,1.65,1.7,2.86,0,1.11-.65,2-1.94,2.67-1.29,.67-2.78,1-4.47,1Z"/>
        </g>
      </g>
      <g>
        <circle class="cls-1" cx="180.01" cy="180.01" r="175.63"/>
        <path class="cls-4" d="M180.01,360.01C80.75,360.01,0,279.26,0,180.01S80.75,0,180.01,0s180,80.75,180,180.01-80.75,180.01-180,180.01Zm0-351.26C85.57,8.75,8.75,85.57,8.75,180.01s76.83,171.26,171.26,171.26,171.26-76.83,171.26-171.26S274.44,8.75,180.01,8.75Z"/>
        <circle class="cls-2" cx="180.01" cy="180.01" r="157.84"/>
        <rect class="cls-4" x="70.43" y="247.18" width="164.31" height="52.41" rx="10.58" ry="10.58"/>
        <g>
          <path class="cls-1" d="M97.74,252.61v12.11c0,6.3,.15,11.93,.6,17.41h-.15c-1.38-4.7-3.28-9.89-5.15-14.26l-6.6-15.26h-8.35v41.63h6.56v-12.56c0-6.78-.07-12.67-.26-18.15l.11-.07c1.57,4.89,3.62,10.26,5.52,14.7l6.79,16.08h7.5v-41.63h-6.56Z"/>
          <path class="cls-1" d="M117.73,286.54v-9.89h11.67v-7.67h-11.67v-8.67h12.38v-7.7h-19.58v41.63h20.25v-7.7h-13.05Z"/>
          <path class="cls-1" d="M166.76,252.61l-2.61,17.04c-.63,4.96-1.34,9.82-1.83,14.45h-.07c-.48-4.63-1.01-9.08-1.72-13.96l-2.54-17.52h-7.61l-2.68,17.04c-.82,5.15-1.57,10.15-2.09,14.67h-.07c-.52-4.22-1.19-9.59-1.9-14.59l-2.39-17.11h-7.68l7.53,41.63h7.87l3.02-17.93c.75-4.19,1.27-8.15,1.83-12.85h.07c.37,4.78,.89,8.67,1.53,12.85l2.68,17.93h7.76l8.17-41.63h-7.27Z"/>
          <path class="cls-1" d="M189.73,269.53c-4.1-2.04-5.89-3.22-5.89-5.89,0-2.15,1.49-4,4.59-4s5.37,1.19,6.64,1.96l1.6-7.59c-1.86-1.11-4.51-2.11-8.09-2.11-7.46,0-11.97,5.44-11.97,12.56,0,6.04,3.43,9.89,8.69,12.3,3.8,1.78,5.33,3.26,5.33,5.85,0,2.74-1.75,4.52-5.03,4.52-3.06,0-6.04-1.3-7.98-2.59l-1.45,7.78c1.79,1.3,5.37,2.59,8.99,2.59,8.73,0,12.79-5.96,12.79-12.96,0-5.85-2.61-9.7-8.2-12.41Z"/>
        </g>
        <path class="cls-3" d="M326.1,189.42c-9.53-36.55-40.43-63.02-78.73-63.37-6.84-.04-13.69,0-20.53-.04h-4.12c-8.2,0-16.41-.08-24.65-.04-.39-1.48-.7-2.95-1.17-4.39-.58-1.94-1.24-3.81-1.94-5.68-12.32-32.35-42.11-54.9-78.23-55.21-11.39-.12-22.78-.16-34.18-.16h-1.48c-5.87,.16-10.65,5.02-10.65,10.92v33.98c15.79,.04,31.57,.08,47.36,.23,10.15,.08,19.25,3.89,26.24,10.23,1.91,1.71,3.69,3.62,5.25,5.72,1.09,1.4,2.06,2.84,2.92,4.39,.04,0,.04,.04,.04,.04-9.37,0-18.7,0-28.03-.04h-40.59c-5.79,0-10.58,4.78-10.58,10.58v31.69c.04,21.38,.04,42.77-.04,64.15-.04,3.81,1.32,4.82,4.7,4.78,14.27-.19,28.54,.35,42.77-.27,34.45-1.63,64.38-26.09,75.7-58.51,.97-2.72,1.79-5.48,2.45-8.32,12.83,0,25.66,.04,38.49,.12,3.77,0,7.54,.04,11.31,.08,13.96,.12,25.93,7.66,32.89,19.13,3.65,6.07,5.99,13.22,6.45,20.99,.74,11.66-3.58,23.02-11,31.41-5.99,6.76-13.96,11.55-22.9,13.02q-7.43,1.21-7.46-6.61v-24.69c0-9.84,0-19.71,.04-29.55,0-.66,0-1.28-.04-1.87-.04-1.13-.23-2.06-.82-2.72h-29.98c-5.79,0-10.58,4.78-10.58,10.58v31.69c.04,21.07,0,42.14-.08,63.18,0,3.73,1.32,4.74,4.59,4.67,13.8-.16,27.64,.39,41.45-.23,33.36-1.55,62.48-25.62,73.48-57.46,2.53-7.39,4.08-15.16,4.51-23.17,.54-10.23-.51-20.06-2.88-29.24Zm-179.12-11c-6.14,6.84-14.35,11.74-23.56,13.26q-7.66,1.28-7.7-6.69v-15.01c4.39,.31,8.75,.16,13.14,.16h24.03c-1.67,2.99-3.65,5.75-5.91,8.28Z"/>
        <g>
          <path class="cls-4" d="M115.91,306.12v11.38c0,.84,.02,1.79,.08,2.43h-1.54l-.08-1.63h-.04c-.53,1.05-1.67,1.85-3.21,1.85-2.28,0-4.03-1.92-4.03-4.78-.02-3.14,1.93-5.06,4.22-5.06,1.44,0,2.41,.68,2.84,1.44h.04v-5.62h1.71Zm-1.71,8.23c0-.21-.02-.5-.08-.72-.25-1.09-1.19-1.99-2.47-1.99-1.77,0-2.82,1.56-2.82,3.64,0,1.91,.93,3.48,2.78,3.48,1.15,0,2.2-.76,2.51-2.04,.06-.23,.08-.47,.08-.74v-1.64Z"/>
          <path class="cls-4" d="M128.66,307.87c.02,.58-.41,1.05-1.09,1.05-.6,0-1.03-.47-1.03-1.05s.45-1.07,1.07-1.07,1.05,.47,1.05,1.07Zm-1.91,12.07v-9.42h1.71v9.42h-1.71Z"/>
          <path class="cls-4" d="M141,314.84h.04c.24-.33,.57-.74,.84-1.07l2.76-3.25h2.06l-3.64,3.87,4.15,5.55h-2.08l-3.25-4.51-.88,.97v3.54h-1.69v-13.82h1.69v8.72Z"/>
          <path class="cls-4" d="M164.57,306.12v11.38c0,.84,.02,1.79,.08,2.43h-1.54l-.08-1.63h-.04c-.53,1.05-1.67,1.85-3.21,1.85-2.28,0-4.03-1.92-4.03-4.78-.02-3.14,1.93-5.06,4.22-5.06,1.44,0,2.41,.68,2.84,1.44h.04v-5.62h1.71Zm-1.71,8.23c0-.21-.02-.5-.08-.72-.25-1.09-1.19-1.99-2.47-1.99-1.77,0-2.82,1.56-2.82,3.64,0,1.91,.93,3.48,2.78,3.48,1.15,0,2.2-.76,2.51-2.04,.06-.23,.08-.47,.08-.74v-1.64Z"/>
          <path class="cls-4" d="M182.02,317.68c0,.82,.04,1.61,.16,2.26h-1.56l-.13-1.19h-.06c-.53,.74-1.54,1.4-2.88,1.4-1.91,0-2.88-1.34-2.88-2.7,0-2.28,2.02-3.52,5.66-3.5v-.2c0-.78-.21-2.18-2.14-2.18-.88,0-1.79,.27-2.45,.7l-.39-1.13c.78-.51,1.91-.84,3.09-.84,2.88,0,3.58,1.97,3.58,3.85v3.52Zm-1.65-2.55c-1.87-.04-3.99,.29-3.99,2.12,0,1.11,.74,1.63,1.62,1.63,1.22,0,2-.78,2.28-1.58,.06-.17,.1-.37,.1-.54v-1.64Z"/>
          <path class="cls-4" d="M192.78,313.46c0-1.11-.02-2.06-.08-2.93h1.5l.06,1.85h.08c.43-1.26,1.46-2.06,2.61-2.06,.19,0,.33,.02,.49,.06v1.62c-.17-.04-.35-.06-.58-.06-1.21,0-2.06,.92-2.3,2.2-.04,.23-.08,.5-.08,.8v5.02h-1.69v-6.48Z"/>
          <path class="cls-4" d="M207.15,313.59c0-1.2-.04-2.18-.08-3.07h1.54l.08,1.61h.04c.7-1.15,1.81-1.83,3.34-1.83,2.28,0,3.99,1.92,3.99,4.79,0,3.39-2.06,5.06-4.28,5.06-1.25,0-2.34-.54-2.9-1.48h-.04v5.12h-1.69v-10.2Zm1.69,2.51c0,.25,.04,.49,.08,.7,.31,1.19,1.34,2,2.57,2,1.81,0,2.86-1.48,2.86-3.64,0-1.89-.99-3.5-2.8-3.5-1.17,0-2.26,.84-2.59,2.12-.06,.22-.12,.47-.12,.7v1.61Z"/>
          <path class="cls-4" d="M234.74,315.15c0,3.49-2.41,5-4.69,5-2.55,0-4.51-1.87-4.51-4.84,0-3.15,2.06-5,4.67-5s4.54,1.97,4.54,4.84Zm-7.47,.1c0,2.06,1.19,3.62,2.86,3.62s2.86-1.54,2.86-3.66c0-1.6-.8-3.62-2.82-3.62s-2.9,1.87-2.9,3.66Z"/>
          <path class="cls-4" d="M244.9,313.07c0-.97-.02-1.77-.08-2.55h1.52l.1,1.56h.04c.47-.9,1.56-1.77,3.11-1.77,1.3,0,3.33,.78,3.33,4.01v5.62h-1.71v-5.43c0-1.52-.56-2.78-2.18-2.78-1.13,0-2,.8-2.3,1.75-.08,.22-.12,.51-.12,.8v5.66h-1.71v-6.87Z"/>
        </g>
      </g>
    </g>
  </g>
</svg>