<?xml version="1.0" encoding="UTF-8"?>
<svg id="Layer_2" data-name="Layer 2" xmlns="http://www.w3.org/2000/svg" viewBox="0 0 48 48">
  <defs>
    <style>
      .cls-1 {
        fill: #fff;
      }

      .cls-2 {
        fill: none;
      }

      .cls-3 {
        fill: #ed1c24;
      }

      .cls-4 {
        fill: #231f20;
      }
    </style>
  </defs>
  <g id="Layer_1-2" data-name="Layer 1">
    <g>
      <circle class="cls-1" cx="24" cy="24" r="23.42"/>
      <path class="cls-4" d="M24,48C10.77,48,0,37.23,0,24S10.77,0,24,0s24,10.77,24,24-10.77,24-24,24ZM24,1.17C11.41,1.17,1.17,11.41,1.17,24s10.24,22.83,22.83,22.83,22.83-10.24,22.83-22.83S36.59,1.17,24,1.17Z"/>
      <circle class="cls-2" cx="24" cy="24" r="21.04"/>
      <rect class="cls-4" x="9.39" y="32.96" width="21.91" height="6.99" rx="1.41" ry="1.41"/>
      <g>
        <path class="cls-1" d="M13.03,33.68v1.61c0,.84,.02,1.59,.08,2.32h-.02c-.18-.63-.44-1.32-.69-1.9l-.88-2.03h-1.11v5.55h.88v-1.67c0-.9,0-1.69-.03-2.42h.01c.21,.64,.48,1.36,.74,1.95l.9,2.14h1v-5.55h-.88Z"/>
        <path class="cls-1" d="M15.7,38.2v-1.32h1.56v-1.02h-1.56v-1.16h1.65v-1.03h-2.61v5.55h2.7v-1.03h-1.74Z"/>
        <path class="cls-1" d="M22.23,33.68l-.35,2.27c-.08,.66-.18,1.31-.24,1.93h0c-.06-.62-.13-1.21-.23-1.86l-.34-2.34h-1.01l-.36,2.27c-.11,.69-.21,1.35-.28,1.96h0c-.07-.56-.16-1.28-.25-1.95l-.32-2.28h-1.02l1,5.55h1.05l.4-2.39c.1-.56,.17-1.09,.24-1.71h0c.05,.64,.12,1.16,.2,1.71l.36,2.39h1.03l1.09-5.55h-.97Z"/>
        <path class="cls-1" d="M25.3,35.94c-.55-.27-.79-.43-.79-.79,0-.29,.2-.53,.61-.53s.72,.16,.88,.26l.21-1.01c-.25-.15-.6-.28-1.08-.28-.99,0-1.6,.73-1.6,1.67,0,.8,.46,1.32,1.16,1.64,.51,.24,.71,.43,.71,.78,0,.37-.23,.6-.67,.6-.41,0-.81-.17-1.06-.35l-.19,1.04c.24,.17,.72,.35,1.2,.35,1.16,0,1.71-.8,1.71-1.73,0-.78-.35-1.29-1.09-1.65Z"/>
      </g>
      <path class="cls-3" d="M43.48,25.25c-1.27-4.87-5.39-8.4-10.5-8.45-.91,0-1.82,0-2.74,0h-.55c-1.09,0-2.19-.01-3.29,0-.05-.2-.09-.39-.16-.59-.08-.26-.17-.51-.26-.76-1.64-4.31-5.61-7.32-10.43-7.36-1.52-.02-3.04-.02-4.56-.02h-.2c-.78,.02-1.42,.67-1.42,1.46v4.53c2.1,0,4.21,.01,6.31,.03,1.35,.01,2.57,.52,3.5,1.36,.25,.23,.49,.48,.7,.76,.15,.19,.27,.38,.39,.59,0,0,0,0,0,0-1.25,0-2.49,0-3.74,0h-5.41c-.77,0-1.41,.64-1.41,1.41v4.22c0,2.85,0,5.7,0,8.55,0,.51,.18,.64,.63,.64,1.9-.03,3.8,.05,5.7-.04,4.59-.22,8.58-3.48,10.09-7.8,.13-.36,.24-.73,.33-1.11,1.71,0,3.42,0,5.13,.02,.5,0,1.01,0,1.51,.01,1.86,.02,3.46,1.02,4.39,2.55,.49,.81,.8,1.76,.86,2.8,.1,1.56-.48,3.07-1.47,4.19-.8,.9-1.86,1.54-3.05,1.74q-.99,.16-1-.88v-3.29c0-1.31,0-2.63,0-3.94,0-.09,0-.17,0-.25,0-.15-.03-.27-.11-.36h-4c-.77,0-1.41,.64-1.41,1.41v4.22c0,2.81,0,5.62-.01,8.42,0,.5,.18,.63,.61,.62,1.84-.02,3.69,.05,5.53-.03,4.45-.21,8.33-3.42,9.8-7.66,.34-.98,.54-2.02,.6-3.09,.07-1.36-.07-2.67-.38-3.9Zm-23.88-1.47c-.82,.91-1.91,1.57-3.14,1.77q-1.02,.17-1.03-.89v-2c.59,.04,1.17,.02,1.75,.02h3.2c-.22,.4-.49,.77-.79,1.1Z"/>
      <g>
        <path class="cls-4" d="M15.45,40.81v1.52c0,.11,0,.24,.01,.32h-.21v-.22h-.02c-.07,.14-.22,.25-.43,.25-.3,0-.54-.26-.54-.64,0-.42,.26-.67,.56-.67,.19,0,.32,.09,.38,.19h0v-.75h.23Zm-.23,1.1s0-.07-.01-.1c-.03-.15-.16-.26-.33-.26-.24,0-.38,.21-.38,.48,0,.25,.12,.46,.37,.46,.15,0,.29-.1,.33-.27,0-.03,.01-.06,.01-.1v-.22Z"/>
        <path class="cls-4" d="M17.15,41.05c0,.08-.05,.14-.15,.14-.08,0-.14-.06-.14-.14s.06-.14,.14-.14,.14,.06,.14,.14Zm-.25,1.61v-1.26h.23v1.26h-.23Z"/>
        <path class="cls-4" d="M18.8,41.98h0s.08-.1,.11-.14l.37-.43h.27l-.49,.52,.55,.74h-.28l-.43-.6-.12,.13v.47h-.23v-1.84h.23v1.16Z"/>
        <path class="cls-4" d="M21.94,40.81v1.52c0,.11,0,.24,.01,.32h-.21v-.22h-.02c-.07,.14-.22,.25-.43,.25-.3,0-.54-.26-.54-.64,0-.42,.26-.67,.56-.67,.19,0,.32,.09,.38,.19h0v-.75h.23Zm-.23,1.1s0-.07-.01-.1c-.03-.15-.16-.26-.33-.26-.24,0-.38,.21-.38,.48,0,.25,.12,.46,.37,.46,.15,0,.29-.1,.33-.27,0-.03,.01-.06,.01-.1v-.22Z"/>
        <path class="cls-4" d="M24.27,42.36c0,.11,0,.22,.02,.3h-.21l-.02-.16h0c-.07,.1-.21,.19-.38,.19-.25,0-.38-.18-.38-.36,0-.3,.27-.47,.76-.47v-.03c0-.1-.03-.29-.29-.29-.12,0-.24,.04-.33,.09l-.05-.15c.1-.07,.25-.11,.41-.11,.38,0,.48,.26,.48,.51v.47Zm-.22-.34c-.25,0-.53,.04-.53,.28,0,.15,.1,.22,.22,.22,.16,0,.27-.1,.3-.21,0-.02,.01-.05,.01-.07v-.22Z"/>
        <path class="cls-4" d="M25.7,41.79c0-.15,0-.27-.01-.39h.2v.25h.02c.06-.17,.19-.27,.35-.27,.03,0,.04,0,.06,0v.22s-.05,0-.08,0c-.16,0-.27,.12-.31,.29,0,.03-.01,.07-.01,.11v.67h-.23v-.86Z"/>
        <path class="cls-4" d="M27.62,41.81c0-.16,0-.29-.01-.41h.21v.22h.02c.09-.15,.24-.24,.45-.24,.3,0,.53,.26,.53,.64,0,.45-.28,.67-.57,.67-.17,0-.31-.07-.39-.2h0v.68h-.23v-1.36Zm.23,.33s0,.06,.01,.09c.04,.16,.18,.27,.34,.27,.24,0,.38-.2,.38-.49,0-.25-.13-.47-.37-.47-.16,0-.3,.11-.35,.28,0,.03-.02,.06-.02,.09v.22Z"/>
        <path class="cls-4" d="M31.3,42.02c0,.46-.32,.67-.63,.67-.34,0-.6-.25-.6-.65,0-.42,.28-.67,.62-.67s.6,.26,.6,.65Zm-1,.01c0,.27,.16,.48,.38,.48s.38-.21,.38-.49c0-.21-.11-.48-.38-.48s-.39,.25-.39,.49Z"/>
        <path class="cls-4" d="M32.65,41.74c0-.13,0-.24-.01-.34h.2v.21h.02c.06-.12,.21-.24,.42-.24,.17,0,.44,.1,.44,.53v.75h-.23v-.72c0-.2-.08-.37-.29-.37-.15,0-.27,.11-.31,.23-.01,.03-.02,.07-.02,.11v.75h-.23v-.92Z"/>
      </g>
    </g>
  </g>
</svg>